<?xml version="1.0" encoding="utf-8"?>
<!-- Generator: Adobe Illustrator 25.2.0, SVG Export Plug-In . SVG Version: 6.00 Build 0)  -->
<svg version="1.1" id="Layer_1" xmlns="http://www.w3.org/2000/svg" xmlns:xlink="http://www.w3.org/1999/xlink" x="0px" y="0px"
	 viewBox="0 0 512 512" style="enable-background:new 0 0 512 512;" xml:space="preserve">
<style type="text/css">
	.st0{fill:#FFFFFF;}
</style>
<g>
	<g>
		<g>
			<path class="st0" d="M256,130.5c10.3,0,18.7-8.4,18.7-18.7v-93C274.7,8.4,266.3,0,256,0s-18.7,8.4-18.7,18.7v93
				C237.3,122.1,245.7,130.5,256,130.5z"/>
			<path class="st0" d="M256,381.5c-10.3,0-18.7,8.4-18.7,18.7v93c0,10.3,8.4,18.7,18.7,18.7s18.7-8.4,18.7-18.7v-93
				C274.7,389.9,266.3,381.5,256,381.5z"/>
			<path class="st0" d="M140.4,167.6l-80.5-46.5c-9-5.2-20.4-2.1-25.6,6.9c-5.2,9-2.1,20.4,6.9,25.6l80.5,46.5
				c9,5.2,20.4,2.1,25.6-6.9C152.4,184.3,149.4,172.8,140.4,167.6z"/>
			<path class="st0" d="M470.8,358.4l-80.5-46.5c-9-5.2-20.4-2.1-25.6,6.9c-5.2,9-2.1,20.4,6.9,25.6l80.5,46.5
				c9,5.2,20.4,2.1,25.6-6.9C482.9,375,479.8,363.6,470.8,358.4z"/>
			<path class="st0" d="M121.7,311.9l-80.5,46.5c-9,5.2-12,16.6-6.9,25.6c5.2,9,16.6,12,25.6,6.9l80.5-46.5c9-5.2,12-16.6,6.9-25.6
				C142.1,309.8,130.6,306.7,121.7,311.9z"/>
			<path class="st0" d="M390.3,200.1l80.5-46.5c9-5.2,12-16.6,6.9-25.6s-16.6-12-25.6-6.9l-80.5,46.5c-9,5.2-12,16.6-6.9,25.6
				C369.9,202.2,381.4,205.3,390.3,200.1z"/>
			<path class="st0" d="M256,178.6c-42.7,0-77.4,34.7-77.4,77.4s34.7,77.4,77.4,77.4s77.4-34.7,77.4-77.4
				C333.4,213.3,298.7,178.6,256,178.6z M256,295.9c-22,0-39.9-17.9-39.9-39.9s17.9-39.9,39.9-39.9s39.9,17.9,39.9,39.9
				S278,295.9,256,295.9z"/>
		</g>
	</g>
</g>
</svg>
