<?xml version="1.0" encoding="utf-8"?>
<!-- Generator: Adobe Illustrator 25.2.0, SVG Export Plug-In . SVG Version: 6.00 Build 0)  -->
<svg version="1.1" id="Layer_1" xmlns="http://www.w3.org/2000/svg" xmlns:xlink="http://www.w3.org/1999/xlink" x="0px" y="0px"
	 viewBox="0 0 220.1 149.1" style="enable-background:new 0 0 220.1 149.1;" xml:space="preserve">
<style type="text/css">
	.st0{fill:#FFFFFF;}
</style>
<g id="Layer_2_1_">
	<g id="Layer_1-2">
		<rect x="18" y="32" class="st0" width="8.3" height="117"/>
		<rect x="36.7" y="32" class="st0" width="8.3" height="45"/>
		<rect y="32" class="st0" width="8.3" height="45"/>
		<rect y="68.3" class="st0" width="45" height="8.7"/>
		<path class="st0" d="M167.8,149.1h-104c-2.8,0-5-2.2-5-5v-1c0-2.8,2.2-5,5-5h104c2.8,0,5,2.2,5,5v1
			C172.8,146.9,170.6,149.1,167.8,149.1z"/>
		<rect x="97.4" y="126.1" class="st0" width="37" height="12"/>
		<path class="st0" d="M205.9,0H32c-8,0.2-14.3,6.7-14.1,14.7v13.1h8.4V14.5c0-3.5,2.8-6.3,6.3-6.3c0,0,0,0,0,0h173
			c3.5,0,6.3,2.8,6.3,6.3c0,0,0,0,0,0v98.2c0,3.5-2.8,6.3-6.3,6.3h-173c-0.6,0-1.1-0.1-1.6-0.2v8.3c0.4,0,0.7,0.1,1.1,0.1h173.9
			c8-0.1,14.3-6.7,14.2-14.7V14.7C220.2,6.7,213.9,0.1,205.9,0z"/>
	</g>
</g>
</svg>
