<?xml version="1.0" encoding="utf-8"?>
<!-- Generator: Adobe Illustrator 25.2.0, SVG Export Plug-In . SVG Version: 6.00 Build 0)  -->
<svg version="1.1" id="Layer_1" xmlns="http://www.w3.org/2000/svg" xmlns:xlink="http://www.w3.org/1999/xlink" x="0px" y="0px"
	 viewBox="0 0 504 504" style="enable-background:new 0 0 504 504;" xml:space="preserve">
<style type="text/css">
	.st0{fill:url(#SVGID_1_);}
	.st1{fill:url(#SVGID_2_);}
</style>
<linearGradient id="SVGID_1_" gradientUnits="userSpaceOnUse" x1="-638.3718" y1="191.227" x2="-636.3718" y2="276.8921" gradientTransform="matrix(7.8769 0 0 7.8769 5226.3208 -1564.0674)">
	<stop  offset="0" style="stop-color:#29D3DA"/>
	<stop  offset="0.2835" style="stop-color:#006A68"/>
	<stop  offset="1" style="stop-color:#266064"/>
</linearGradient>
<path class="st0" d="M104.2,353.9c-48.3-70-41.4-166.5,20.9-228.8c62.2-62.2,158.8-69.2,228.8-20.9l51.9-51.9
	C306.9-24,164.4-16.8,73.8,73.8C-16.9,164.4-24,306.9,52.3,405.7L104.2,353.9z"/>
<linearGradient id="SVGID_2_" gradientUnits="userSpaceOnUse" x1="219.1947" y1="204.9156" x2="471.9335" y2="522.3021">
	<stop  offset="0.1867" style="stop-color:#002B3F"/>
	<stop  offset="0.3288" style="stop-color:#3B5766"/>
	<stop  offset="0.5117" style="stop-color:#808C94"/>
	<stop  offset="0.6771" style="stop-color:#B6B5B9"/>
	<stop  offset="0.8187" style="stop-color:#DED3D3"/>
	<stop  offset="0.9309" style="stop-color:#F6E5E3"/>
	<stop  offset="1" style="stop-color:#FFECE9"/>
</linearGradient>
<path class="st1" d="M451.7,98.3l-51.9,51.9c48.3,70,41.4,166.5-20.9,228.8c-62.3,62.3-158.8,69.2-228.8,20.9l-51.9,51.9
	c98.8,76.3,241.3,69.2,331.9-21.5C520.9,339.6,528,197.2,451.7,98.3z"/>
</svg>
