<?xml version="1.0" encoding="iso-8859-1"?>
<!-- Generator: Adobe Illustrator 19.0.0, SVG Export Plug-In . SVG Version: 6.00 Build 0)  -->
<svg version="1.1" id="Layer_1" xmlns="http://www.w3.org/2000/svg" xmlns:xlink="http://www.w3.org/1999/xlink" x="0px" y="0px"
	 viewBox="0 0 172.151 172.151" style="enable-background:new 0 0 172.151 172.151;" fill="#fff" xml:space="preserve">
<g>
	<g>
		<g>
			<path d="M94.992,27.9c-1.292-0.552-2.796-0.292-3.832,0.67c-1.031,0.963-1.398,2.443-0.937,3.777
				c8.126,23.446,1.654,49.526-16.488,66.441c-18.141,16.918-44.614,21.557-67.43,11.814c-1.297-0.55-2.8-0.291-3.832,0.672
				c-1.031,0.963-1.398,2.443-0.937,3.777c3.195,9.216,8.213,17.533,14.916,24.72c12.722,13.643,29.998,21.515,48.642,22.166
				c0.836,0.03,1.666,0.044,2.499,0.044c17.728,0,34.54-6.611,47.573-18.764c13.643-12.724,21.517-29.998,22.168-48.643
				c0.651-18.644-5.998-36.426-18.72-50.069C111.91,37.318,103.964,31.731,94.992,27.9z M130.205,94.325
				c-0.584,16.74-7.653,32.251-19.905,43.675c-12.25,11.423-28.237,17.373-44.957,16.811c-16.741-0.585-32.251-7.654-43.674-19.904
				c-4.208-4.513-7.678-9.519-10.363-14.948c23.46,6.862,49.127,0.987,67.294-15.954c18.165-16.939,25.826-42.128,20.608-66.018
				c5.229,3.059,9.982,6.869,14.188,11.382C124.821,61.619,130.79,77.586,130.205,94.325z"/>
			<path d="M47.4,31.377c0.696,0.696,1.609,1.045,2.521,1.045s1.825-0.348,2.521-1.045l5.107-5.107l5.107,5.107
				c0.696,0.696,1.609,1.045,2.521,1.045s1.825-0.348,2.521-1.045c1.393-1.393,1.393-3.649,0-5.042l-5.106-5.106l4.972-4.972
				c1.393-1.393,1.393-3.649,0-5.042c-1.393-1.393-3.649-1.393-5.042,0l-4.972,4.972l-4.973-4.973c-1.393-1.393-3.649-1.393-5.042,0
				c-1.393,1.393-1.393,3.649,0,5.042l4.973,4.973L47.4,26.335C46.007,27.728,46.007,29.984,47.4,31.377z"/>
			<path d="M171.107,65.559L166,60.452l4.973-4.973c1.393-1.393,1.393-3.649,0-5.042s-3.649-1.393-5.042,0l-4.973,4.973
				l-4.973-4.973c-1.393-1.393-3.649-1.393-5.042,0s-1.393,3.649,0,5.042l4.973,4.973l-5.107,5.107
				c-1.393,1.393-1.393,3.649,0,5.042c0.696,0.696,1.609,1.045,2.521,1.045s1.825-0.348,2.521-1.045l5.107-5.107l5.107,5.107
				c0.696,0.696,1.609,1.045,2.521,1.045s1.825-0.348,2.521-1.045C172.499,69.208,172.499,66.952,171.107,65.559z"/>
			<path d="M6.087,95.562l5.107-5.107l5.107,5.107c0.696,0.696,1.609,1.045,2.521,1.045c0.912,0,1.825-0.348,2.521-1.045
				c1.393-1.393,1.393-3.649,0-5.042l-5.107-5.107l4.973-4.973c1.393-1.393,1.393-3.649,0-5.042s-3.649-1.393-5.042,0l-4.973,4.973
				l-4.972-4.973c-1.393-1.393-3.649-1.393-5.042,0s-1.393,3.649,0,5.042l4.973,4.973l-5.108,5.106
				c-1.393,1.393-1.393,3.649,0,5.042c0.696,0.696,1.609,1.045,2.521,1.045C4.478,96.606,5.39,96.258,6.087,95.562z"/>
		</g>
	</g>
</g>
<g>
</g>
<g>
</g>
<g>
</g>
<g>
</g>
<g>
</g>
<g>
</g>
<g>
</g>
<g>
</g>
<g>
</g>
<g>
</g>
<g>
</g>
<g>
</g>
<g>
</g>
<g>
</g>
<g>
</g>
</svg>
