<svg xmlns="http://www.w3.org/2000/svg" viewBox="0 0 496 496"><defs><style>.cls-1{fill:#1dced1;}.cls-2{fill:#0db7ba;}.cls-3{fill:#15bfc2;}.cls-4{fill:#fff;}</style></defs><g id="Layer_2" data-name="Layer 2"><g id="Layer_1-2" data-name="Layer 1"><path class="cls-1" d="M496,248c0,136.8-111.2,248-248,248S0,384.8,0,248,111.2,0,248,0,496,111.2,496,248Z"/><path class="cls-2" d="M248,0C384.8,0,496,111.2,496,248S384.8,496,248,496"/><path class="cls-3" d="M72.8,72.8C169.6-24,326.4-24,423.2,72.8s96.8,253.6,0,350.4"/><path class="cls-2" d="M188,192c-12,0-20,9.6-20,20.8v116c0,12,8,21.6,20,21.6s20-9.6,20-21.6v-116C208,201.6,200,192,188,192Z"/><path class="cls-2" d="M308,192c-12,0-20,9.6-20,20.8v116c0,12,8,21.6,20,21.6s20-9.6,20-21.6v-116C328,201.6,320,192,308,192Z"/><path class="cls-4" d="M188,168.8c-12,0-20,9.6-20,21.6v116c0,12,8,21.6,20,21.6s20-9.6,20-21.6V189.6C208,178.4,200,168.8,188,168.8Z"/><path class="cls-4" d="M308,168.8c-12,0-20,9.6-20,21.6v116c0,12,8,21.6,20,21.6s20-9.6,20-21.6V189.6C328,178.4,320,168.8,308,168.8Z"/></g></g></svg>