<svg xmlns="http://www.w3.org/2000/svg" viewBox="0 0 416.8 340"><defs><style>.cls-1{fill:#1dced1;}.cls-2{fill:#15bfc2;}</style></defs><g id="Layer_2" data-name="Layer 2"><g id="Layer_1-2" data-name="Layer 1"><polygon class="cls-1" points="356.4 155.6 317.6 92.8 252.4 72 252.4 6.4 335.6 42 396.4 155.6 356.4 155.6"/><ellipse class="cls-1" cx="197.59" cy="291.99" rx="56" ry="38.4" transform="translate(-68.84 61.09) rotate(-15)"/><path class="cls-2" d="M186.8,340c-25.2,0-46-12-51.2-31.2-6.8-25.2,15.2-52,50-61.2,16-4.4,32.4-4,46,.8,14.8,5.2,24.4,14.8,28,27.6,6.8,25.2-15.2,52-50,61.2C201.6,338.8,194,340,186.8,340ZM208,260a75,75,0,0,0-18.4,2.4c-25.2,6.8-42.8,26-38.4,41.6,4.4,16,29.2,23.6,54.4,16.8s42.8-26,38.4-41.6c-2-7.2-8.4-13.2-18-16.4A62.89,62.89,0,0,0,208,260Z"/><path class="cls-2" d="M252.4,280.4a8,8,0,0,1-8-8V8a8.35,8.35,0,0,1,3.2-6.4A7.76,7.76,0,0,1,254.8.4L287.6,10c42,12.4,74.4,44.8,87.2,87.2l1.2,5.2a90.53,90.53,0,0,0,27.6,43.2l10,8.8a7.94,7.94,0,0,1-10.4,12l-10-8.8a103.51,103.51,0,0,1-32.4-51.2l-1.2-5.2a113.15,113.15,0,0,0-76-76l-22.4-6.4V272.4C260.4,276.8,256.8,280.4,252.4,280.4Z"/><path class="cls-2" d="M408.8,168h-20a68.64,68.64,0,0,1-60.4-36.4l-1.2-2.4A90.84,90.84,0,0,0,278,86.4L249.6,75.6a8.16,8.16,0,0,1-4.8-10.4,7.85,7.85,0,0,1,10.4-4.8l28.4,10.8a111.91,111.91,0,0,1,58,50.4l1.2,2.8a52.26,52.26,0,0,0,46,27.6h20a8,8,0,0,1,0,16Z"/><path class="cls-2" d="M196.8,52H48.4a8,8,0,0,1,0-16H196.8a8,8,0,0,1,0,16Z"/><path class="cls-2" d="M20.4,52H8A8,8,0,0,1,8,36H20.4a8,8,0,1,1,0,16Z"/><path class="cls-2" d="M176.8,100H48.4a8,8,0,0,1,0-16H176.8a8,8,0,0,1,0,16Z"/><path class="cls-2" d="M20.4,100H8A8,8,0,0,1,8,84H20.4a8,8,0,1,1,0,16Z"/><path class="cls-2" d="M208.8,148H48.4a8,8,0,0,1,0-16H208.8a8,8,0,0,1,0,16Z"/><path class="cls-2" d="M20.4,148H8a8,8,0,0,1,0-16H20.4a8,8,0,1,1,0,16Z"/><path class="cls-2" d="M156.8,196H48.4a8,8,0,0,1,0-16H156.8a8,8,0,0,1,0,16Z"/><path class="cls-2" d="M20.4,196H8a8,8,0,0,1,0-16H20.4a8,8,0,1,1,0,16Z"/></g></g></svg>