<?xml version="1.0" encoding="utf-8"?>
<!-- Generator: Adobe Illustrator 25.2.0, SVG Export Plug-In . SVG Version: 6.00 Build 0)  -->
<svg version="1.1" id="Layer_1" xmlns="http://www.w3.org/2000/svg" xmlns:xlink="http://www.w3.org/1999/xlink" x="0px" y="0px"
	 viewBox="0 0 48 49" style="enable-background:new 0 0 48 49;" xml:space="preserve">
<style type="text/css">
	.st0{fill:#40596B;}
	.st1{fill:#CDD6E0;}
	.st2{fill:#F2F2F2;}
	.st3{fill:#FFD15C;}
	.st4{fill:#ACB3BA;}
	.st5{fill:#84DBFF;}
	.st6{fill:#89D6F7;}
	.st7{fill:#55BFE9;}
</style>
<path class="st0" d="M40.7,6.2H7.3c-0.8,0-1.5,0.7-1.5,1.5v4.8h36.5V7.8C42.2,6.9,41.6,6.2,40.7,6.2z"/>
<rect x="5.7" y="12.6" class="st1" width="36.5" height="21.1"/>
<rect x="7.6" y="14.5" class="st2" width="32.7" height="17.3"/>
<circle class="st3" cx="9.3" cy="9.4" r="1.6"/>
<circle class="st4" cx="13.6" cy="9.4" r="1.6"/>
<circle class="st5" cx="17.9" cy="9.4" r="1.6"/>
<path class="st4" d="M38.2,7.8H25.3c-0.9,0-1.6,0.8-1.6,1.6c0,0.8,0.8,1.6,1.6,1.6h12.9c0.9,0,1.6-0.8,1.6-1.6
	C39.8,8.5,39.1,7.8,38.2,7.8z"/>
<path class="st6" d="M36.3,30.4c0,6.8-5.5,12.3-12.3,12.3c-6.8,0-12.3-5.6-12.3-12.3c0-2.5,0.8-4.9,2.1-6.8c0.2-0.2,0.2-0.4,0.4-0.5
	c1.8-2.4,4.4-4.1,7.5-4.7h0.1c0.8-0.2,1.5-0.2,2.3-0.2c0.3,0,0.6,0,0.9,0c0.4,0,0.8,0.1,1.1,0.2c5,0.8,9,4.7,10,9.7
	c0,0.2,0.1,0.2,0.1,0.4C36.2,29,36.3,29.7,36.3,30.4z"/>
<g>
	<path class="st7" d="M23.3,20.4c0,0.4-0.6,0.5-0.9,0.5c-0.2,0.1-0.5,0.3-0.7,0.5c-0.5,0.5-1,0.8-1.6,1.1c-0.6,0.3-1.4,0.5-1.8,0
		c1.4-0.6,2.4-1.8,3-3.3c-0.7,0.4-1.2,1-1.7,1.4c-0.7,0.5-1.4,1-2.1,1.6c-0.6,0.6-1.1,1.4-1.1,2.3c0-0.5-0.3-1-0.8-1.2
		c-0.4-0.3-0.9-0.4-1.4-0.4c0,0,0,0-0.1,0c1.8-2.4,4.4-4.1,7.5-4.7h0.1c0.2,0.6,0.5,1.2,1.1,1.5C23.1,19.9,23.3,20.2,23.3,20.4z"/>
	<path class="st7" d="M26.1,18.3c0.3,0.2,0.6,0.4,0.8,0.6C27,18.9,27,19,27,19.1c-0.1,0.2-0.4,0.2-0.6,0.3c-0.4,0.2-0.2,0.7,0.1,0.9
		c0.3,0.2,0.7,0.2,1.1,0.5c0.2,0.1,0.2,0.2,0.2,0.3c0,0.1-0.1,0.2-0.2,0.2c-0.4,0.5-0.8,0.9-1.2,1.4c-0.1,0.1-0.2,0.2-0.4,0.3
		c-0.2,0.1-0.4,0.1-0.6,0.1c-0.8,0-1.7,0.2-2,0.9c-0.1,0.2-0.1,0.4-0.2,0.5c-0.2,0.2-0.3,0.2-0.5,0.3c-0.2,0.2,0.1,0.5,0.1,0.8
		c0.1,0.5-0.5,0.8-0.8,0.7c0-0.5,0-1-0.1-1.4c0-0.1,0-0.2-0.1-0.2c-0.1-0.1-0.2-0.1-0.2-0.2c-0.5-0.2-1-0.2-1.4,0.2
		c-0.3,0.4-0.2,0.9,0.1,1.3c0.2,0.4,0.6,0.8,0.6,1.3c0,0.2-0.1,0.5-0.3,0.5c-0.3,0.1-0.5-0.4-0.5-0.7c-0.3,0.8-0.5,1.9-0.3,2.9
		c-0.7,0.2-1.4,0.4-2.1,0.5c-0.2,0.1-0.5,0.2-0.7,0.4c-0.2,0.2-0.2,0.5-0.2,0.7c0,0.8,0.2,1.7,0.6,2.4c0.2,0.2,0.3,0.5,0.5,0.7
		c0.7,0.5,1.6,0.2,2.4,0.5c0.7,0.2,1.2,0.7,1.5,1.3c0.3,0.6,0.5,1.3,0.7,2c0.1,0.3,0.2,0.6,0.4,0.8c0.2,0.2,0.7,0.3,1,0.4
		c0.6,0.1,1.3,0.2,1.8-0.2c0.5-0.2,0.8-0.8,1.3-1c0.3-0.2,0.8-0.1,1.1-0.2c0.4-0.1,0.8-0.4,0.6-0.8c-0.1-0.3-0.5-0.6-0.5-0.9
		c0.1-0.2,0.4-0.3,0.6-0.4c1-0.4,1.6-1.7,1.1-2.7c-0.1-0.2-0.2-0.3-0.2-0.5c0-0.5,0.7-0.7,1.1-1.1c0.3-0.4,0.3-0.8,0.4-1.4
		c0.1-0.5,0.2-1,0.7-1.1c0.5-0.2,0.9,0.2,1.1,0.6c0.2,0.4,0.5,0.8,0.8,1.1c0-0.8,0-1.7,0-2.4c0-0.3,0-0.6,0.2-0.8
		c0.3-0.4,0.9-0.3,1.4-0.2c0.2,0,0.3,0.1,0.5,0.1C35.1,23,31.1,19.1,26.1,18.3z M28.5,26.2L28.5,26.2c0.2,0,0.3,0,0.5,0
		c-0.1,0.3,0,0.6,0.2,0.8c0.1,0.1,0.2,0.2,0.3,0.3c0.2,0.2,0.3,0.6,0.2,0.9c-0.2,0-0.5,0-0.8,0c-0.2-0.1-0.5-0.2-0.6-0.5
		c-0.1-0.2-0.1-0.3-0.1-0.5C28.1,26.9,28.1,26.5,28.5,26.2z M24.8,30.5c-0.4-0.1-0.8-0.3-1.1-0.5c-0.5-0.3-1.1-0.5-1.7-0.5
		c-0.2,0-0.5,0-0.6,0c-0.2-0.1-0.4-0.2-0.5-0.4c-0.1-0.2,0.1-0.5,0.3-0.7c0.2-0.2,0.5-0.2,0.7-0.4l0.1-0.4c0.5,0.5,1.1,0.8,1.7,1.1
		c0.3,0.2,0.6,0.2,0.9,0.2c0.3,0,0.7,0,1,0c0.1,0,0.2,0,0.3,0c0.2,0,0.5,0,0.7-0.1c0.3,0,0.5-0.1,0.8-0.2c0.1,0.3-0.1,0.7-0.3,0.9
		c-0.2,0.2-0.5,0.4-0.9,0.5C25.8,30.4,25.3,30.6,24.8,30.5z M29.6,32.9c0,0.1-0.1,0.2-0.2,0.2c-0.1,0-0.1,0.1-0.2,0.1
		c-0.5,0.1-1.1,0.2-1.5-0.2c-0.2-0.2-0.3-0.4-0.5-0.6c-0.2-0.3-0.3-0.5-0.5-0.8c-0.2-0.3-0.3-0.6-0.2-0.9c0.2,0,0.5,0,0.8,0.1
		l0.1,0.1c-0.1,0.2,0,0.5,0.2,0.6c0.2,0.2,0.4,0.2,0.5,0.3c0.2,0.1,0.3,0.2,0.5,0.2c0.2,0.1,0.5,0.2,0.7,0.4
		C29.6,32.4,29.6,32.6,29.6,32.9z M30.5,30.3c-0.1,0.1-0.1,0.1-0.2,0.1c-0.5,0.2-1.1-0.2-1.1-0.8l0.1-0.1c0.4,0,0.8,0,1.1,0
		c0.1,0,0.2,0,0.2,0.1c0.1,0.1,0.1,0.2,0.1,0.2C30.6,30,30.6,30.2,30.5,30.3z"/>
</g>
</svg>
