<?xml version="1.0" encoding="utf-8"?>
<!-- Generator: Adobe Illustrator 25.2.0, SVG Export Plug-In . SVG Version: 6.00 Build 0)  -->
<svg version="1.1" id="Layer_1" xmlns="http://www.w3.org/2000/svg" xmlns:xlink="http://www.w3.org/1999/xlink" x="0px" y="0px"
	 viewBox="0 0 48 48" style="enable-background:new 0 0 48 48;" xml:space="preserve">
<style type="text/css">
	.st0{fill:#08446D;}
	.st1{fill:#00233F;}
	.st2{fill:#FFFFFF;}
	.st3{fill:#E8961F;}
</style>
<g>
	<path class="st0" d="M42.2,38.8c0,1.9-1.8,3.7-3.7,3.7H9.4c-1.9,0-3.7-1.8-3.7-3.7V9.7C5.7,7.8,7.4,6,9.4,6h29.1
		c1.9,0,3.7,1.8,3.7,3.7V38.8z"/>
	<path class="st1" d="M38.4,6c1.9,0,3.7,1.8,3.7,3.7v29.1c0,1.9-1.8,3.7-3.7,3.7H9.4c-1.9,0-3.7-1.8-3.7-3.7"/>
	<g>
		<path class="st2" d="M16,21.2c0,0.4-0.2,0.6-0.6,0.6l0,0c-0.4,0-0.6-0.2-0.6-0.6v-9.7c0-0.4,0.2-0.6,0.6-0.6l0,0
			c0.4,0,0.6,0.2,0.6,0.6V21.2z"/>
		<path class="st2" d="M10.9,16.9c-0.4,0-0.7-0.2-0.7-0.6l0,0c0-0.4,0.3-0.6,0.7-0.6h9.4c0.4,0,0.7,0.2,0.7,0.6l0,0
			c0,0.4-0.3,0.6-0.7,0.6H10.9z"/>
		<path class="st2" d="M27.5,16.9c-0.4,0-0.7-0.2-0.7-0.6l0,0c0-0.4,0.3-0.6,0.7-0.6h9.4c0.4,0,0.7,0.2,0.7,0.6l0,0
			c0,0.4-0.3,0.6-0.7,0.6H27.5z"/>
		<path class="st2" d="M12.7,35.3c-0.2,0.2-0.7,0.2-0.9,0l0,0c-0.2-0.2-0.2-0.7,0-0.9l6.6-6.7c0.2-0.2,0.7-0.2,0.9,0l0,0
			c0.2,0.2,0.2,0.7,0,0.9L12.7,35.3z"/>
		<path class="st2" d="M11.8,28.6c-0.2-0.2-0.2-0.7,0-0.9l0,0c0.2-0.2,0.7-0.2,0.9,0l6.6,6.6c0.2,0.2,0.2,0.7,0,0.9l0,0
			c-0.2,0.2-0.7,0.2-0.9,0L11.8,28.6z"/>
	</g>
	<g>
		<path class="st3" d="M27.5,34.6c-0.4,0-0.7-0.2-0.7-0.6l0,0c0-0.4,0.3-0.6,0.7-0.6h9.4c0.4,0,0.7,0.2,0.7,0.6l0,0
			c0,0.4-0.3,0.6-0.7,0.6H27.5z"/>
		<path class="st3" d="M27.5,29.7c-0.4,0-0.7-0.2-0.7-0.6l0,0c0-0.4,0.3-0.6,0.7-0.6h9.4c0.4,0,0.7,0.2,0.7,0.6l0,0
			c0,0.4-0.3,0.6-0.7,0.6H27.5z"/>
	</g>
</g>
</svg>
