<?xml version="1.0" encoding="utf-8"?>
<!-- Generator: Adobe Illustrator 25.2.0, SVG Export Plug-In . SVG Version: 6.00 Build 0)  -->
<svg version="1.1" id="Layer_1" xmlns="http://www.w3.org/2000/svg" xmlns:xlink="http://www.w3.org/1999/xlink" x="0px" y="0px"
	 viewBox="0 0 48 48" style="enable-background:new 0 0 48 48;" xml:space="preserve">
<style type="text/css">
	.st0{fill:#E4E7E7;}
	.st1{fill:#E2574C;}
	.st2{fill:#324D5B;}
	.st3{fill:#BF392C;}
	.st4{fill:#C2C5C5;}
</style>
<g>
	<path class="st0" d="M8,5.8H40c1.3,0,2.3,1,2.3,2.3V40c0,1.3-1,2.3-2.3,2.3H8c-1.3,0-2.3-1-2.3-2.3V8C5.8,6.8,6.8,5.8,8,5.8z"/>
	<path class="st1" d="M40,5.8H8c-1.3,0-2.3,1-2.3,2.3v5.7h36.5V8C42.2,6.8,41.2,5.8,40,5.8z"/>
	<path class="st2" d="M30.5,25.1c-0.4,0-0.8,0.1-1.1,0.2l0,0c0.6-0.8,1.8-1.9,2.5-2.7c0.2-0.3,0.4-0.5,0.4-0.7
		c0-0.6-0.8-1.2-1.3-1.2c-0.1,0-0.3,0-0.5,0.1c-0.2,0.1-0.4,0.3-0.6,0.4c-1.8,1.6-4.6,5.2-4.6,7.8c0,2.3,1.8,4.2,4.6,4.2
		c2.7,0,4.6-2,4.6-4.2C34.3,26.9,32.7,25.1,30.5,25.1z M29.7,30.7c-1.1,0-1.7-0.8-1.7-1.8c0-1,0.7-1.8,1.7-1.8
		c1.1,0,1.7,0.9,1.7,1.8C31.4,29.9,30.7,30.7,29.7,30.7z M21.4,30.8h-3.4c1.6-1.9,4.5-4.2,4.5-6.7c0-2.2-1.9-3.6-4.2-3.6
		s-4.4,1.8-4.4,3.9c0,0.7,0.5,1.3,1.4,1.3c1.8,0,0.8-2.8,2.9-2.8c0.8,0,1.4,0.6,1.4,1.3c0,0.6-0.3,1.2-0.7,1.6
		c-1.4,1.9-3.1,3.5-4.7,5.2c-0.2,0.2-0.4,0.5-0.4,0.9c0,0.8,0.6,1.1,1.5,1.1h6.3c0.7,0,1.4-0.3,1.4-1.1
		C22.9,31.2,22.2,30.8,21.4,30.8z"/>
	<path class="st3" d="M5.8,12.6h36.5v2.3H5.8V12.6z"/>
	<path class="st3" d="M24,8c0.6,0,1.1,0.5,1.1,1.1c0,0.6-0.5,1.1-1.1,1.1s-1.1-0.5-1.1-1.1C22.9,8.5,23.4,8,24,8z"/>
	<path class="st4" d="M40,40H8c-1.3,0-2.3-1-2.3-2.3V40c0,1.3,1,2.3,2.3,2.3H40c1.3,0,2.3-1,2.3-2.3v-2.3C42.2,38.9,41.2,40,40,40z"
		/>
</g>
</svg>
