<?xml version="1.0" encoding="utf-8"?>
<!-- Generator: Adobe Illustrator 25.2.0, SVG Export Plug-In . SVG Version: 6.00 Build 0)  -->
<svg version="1.1" id="Layer_1" xmlns="http://www.w3.org/2000/svg" xmlns:xlink="http://www.w3.org/1999/xlink" x="0px" y="0px"
	 viewBox="0 0 48 48" style="enable-background:new 0 0 48 48;" xml:space="preserve">
<style type="text/css">
	.st0{fill:#D8D8DA;}
	.st1{fill:#C5C5CA;}
	.st2{fill:#EDEDED;}
	.st3{fill:#F8F8F9;}
	.st4{fill:#58575D;}
	.st5{fill:#98C8ED;}
	.st6{fill:#F3F3F2;}
	.st7{fill:#D1E3FA;}
	.st8{fill:#3F3D43;}
	.st9{fill:#787681;}
	.st10{fill:#FFFFFF;}
</style>
<g id="XMLID_536_">
	<polyline id="XMLID_539_" class="st0" points="32.7,13.6 31,5.8 17,5.8 15.3,13.6 	"/>
	<polygon id="XMLID_540_" class="st1" points="17,5.8 15.3,13.6 19.7,13.6 19.7,5.8 	"/>
	<polygon id="XMLID_541_" class="st2" points="31,5.8 32.7,13.6 28.3,13.6 28.3,5.8 	"/>
	<path id="XMLID_542_" class="st2" d="M42.2,38.3c0,2.2-1.6,3.9-3.5,3.9H9.2c-1.9,0-3.5-1.8-3.5-3.9V16.6c0-2.2,1.6-3.9,3.5-3.9
		h29.5c1.9,0,3.5,1.8,3.5,3.9V38.3z"/>
	<g id="XMLID_547_">
		<g id="XMLID_949_">
			<g id="XMLID_950_">
				<path id="XMLID_951_" class="st0" d="M9.2,12.7c-1.9,0-3.5,1.8-3.5,3.9v21.7c0,2.2,1.6,3.9,3.5,3.9V12.7z"/>
			</g>
		</g>
	</g>
	<g id="XMLID_553_">
		<g id="XMLID_948_">
			<g id="XMLID_952_">
				<path id="XMLID_953_" class="st3" d="M38.8,42.2c1.9,0,3.5-1.8,3.5-3.9V16.6c0-2.2-1.6-3.9-3.5-3.9V42.2z"/>
			</g>
		</g>
	</g>
	<rect id="XMLID_555_" x="5.8" y="20.5" class="st4" width="36.5" height="13.8"/>
	<ellipse id="XMLID_557_" class="st5" cx="24" cy="27.5" rx="7" ry="7.9"/>
	<g id="XMLID_561_">
		<g id="XMLID_559_">
			<rect id="XMLID_560_" x="35.3" y="27" class="st6" width="3.5" height="3"/>
		</g>
	</g>
	<path id="XMLID_563_" class="st7" d="M25.8,19.8l-8.5,9.7c0.6,2.7,2.5,4.8,4.9,5.6l8.5-9.7C30.1,22.7,28.2,20.6,25.8,19.8z"/>
	<rect id="XMLID_564_" x="5.8" y="20.5" class="st8" width="3.5" height="13.8"/>
	<rect id="XMLID_565_" x="38.8" y="20.5" class="st9" width="3.5" height="13.8"/>
	<ellipse id="XMLID_568_" class="st10" cx="26" cy="25.3" rx="2.6" ry="3"/>
</g>
</svg>
