<?xml version="1.0" encoding="utf-8"?>
<!-- Generator: Adobe Illustrator 25.2.0, SVG Export Plug-In . SVG Version: 6.00 Build 0)  -->
<svg version="1.1" id="Layer_1" xmlns="http://www.w3.org/2000/svg" xmlns:xlink="http://www.w3.org/1999/xlink" x="0px" y="0px"
	 viewBox="0 0 48 48" style="enable-background:new 0 0 48 48;" xml:space="preserve">
<style type="text/css">
	.st0{fill:#3C99D4;}
</style>
<path class="st0" d="M32.3,5.8c-0.3,0-0.6,0.1-0.9,0.2c0.7,0.4,1.2,1.1,1.3,1.9c0,0.1,0,0.2,0,0.2v31.8c0,0.9-0.6,1.7-1.3,2.1
	c0.3,0.2,0.6,0.2,0.9,0.2c0.3,0,0.6-0.1,0.8-0.2l0,0c1.3-0.7,7.7-4,7.9-4.1c0.7-0.4,1.2-1.2,1.2-2.1V12.1c0-0.8-0.4-1.5-1-2
	c-0.3-0.2-8-4.2-8-4.2l0,0C32.9,5.8,32.6,5.7,32.3,5.8z M30.3,7.3c-0.2,0-0.4,0.1-0.6,0.2c0,0-4.5,5.1-9.6,10.8l5.9,4.9l5-4.2V8.1
	c0-0.2-0.1-0.4-0.2-0.6C30.8,7.4,30.6,7.3,30.3,7.3z M10.5,12.9c-0.1,0-0.4,0-1.4,0.5c-0.6,0.3-2.5,1.3-2.5,1.3
	C6.3,14.8,6.1,15,6,15.3c0.1,0,0.1,0,0.2,0h0c0.5,0,0.9,0.4,1,0.5c0,0,22.4,24.4,22.7,24.7c0.2,0.2,0.4,0.2,0.6,0.2
	c0.2,0,0.4-0.1,0.6-0.2c0.2-0.2,0.2-0.4,0.2-0.6V29.3c0,0-19.4-15.9-19.6-16C11.3,13,10.9,12.9,10.5,12.9z M5.9,16.8
	c-0.1,0-0.2,0.1-0.2,0.2v14.8c0,0.1,0.1,0.2,0.2,0.2c0,0,0.1,0,0.1-0.1l4.5-5v-5.3L6,16.9C6,16.9,6,16.8,5.9,16.8z M13.9,25.4
	c0,0-6.8,7.7-6.9,7.7c-0.2,0.2-0.5,0.3-0.8,0.3c-0.1,0-0.1,0-0.2,0c0.2,0.3,0.4,0.5,0.7,0.6l0,0c0.7,0.4,3,1.5,3.3,1.6
	c0.2,0.1,0.4,0.1,0.6,0.1c0.3,0,0.5-0.1,0.8-0.2c0,0,6.8-5.7,6.8-5.7L13.9,25.4z"/>
</svg>
