<?xml version="1.0" encoding="utf-8"?>
<!-- Generator: Adobe Illustrator 25.2.0, SVG Export Plug-In . SVG Version: 6.00 Build 0)  -->
<svg version="1.1" id="Layer_1" xmlns="http://www.w3.org/2000/svg" xmlns:xlink="http://www.w3.org/1999/xlink" x="0px" y="0px"
	 viewBox="0 0 48 48" style="enable-background:new 0 0 48 48;" xml:space="preserve">
<style type="text/css">
	.st0{fill:#FFFFFF;}
	.st1{fill:#0A66C2;}
</style>
<rect x="9.3" y="9.9" class="st0" width="30.4" height="28.7"/>
<path class="st1" d="M34.8,6.8H13.5c-4.2,0-7.6,3.4-7.6,7.6v21.3c0,4.2,3.4,7.6,7.6,7.6h21.3c4.2,0,7.6-3.4,7.6-7.6V14.4
	C42.4,10.2,39,6.8,34.8,6.8z M18.1,35.7h-4.6V19h4.6V35.7z M15.8,17.1c-1.5,0-2.7-1.2-2.7-2.7s1.2-2.7,2.7-2.7s2.7,1.2,2.7,2.7
	S17.2,17.1,15.8,17.1z M36.3,35.7h-4.6v-8.5c0-5.1-6.1-4.7-6.1,0v8.5h-4.6V19h4.6v2.7c2.1-3.9,10.7-4.2,10.7,3.8V35.7z"/>
</svg>
