<?xml version="1.0" encoding="utf-8"?>
<!-- Generator: Adobe Illustrator 25.2.0, SVG Export Plug-In . SVG Version: 6.00 Build 0)  -->
<svg version="1.1" id="Layer_1" xmlns="http://www.w3.org/2000/svg" xmlns:xlink="http://www.w3.org/1999/xlink" x="0px" y="0px"
	 viewBox="0 0 48 48" style="enable-background:new 0 0 48 48;" xml:space="preserve">
<style type="text/css">
	.st0{fill:#D1D3D4;}
	.st1{fill:#48AEE2;}
	.st2{fill:#39A3DB;}
	.st3{fill:#F59D00;}
	.st4{fill:#57BDB7;}
	.st5{fill:#FF5E5B;}
	.st6{fill:#FF423D;}
</style>
<path class="st0" d="M17.3,44.5H7.1c-1,0-1.8-0.8-1.8-1.8V18.3c0-1,0.8-1.8,1.8-1.8h6.3c0.8,0,1.5,0.5,1.7,1.2
	c4.8,14.4,3.9-0.6,3.9,25.1C19,43.7,18.2,44.5,17.3,44.5z"/>
<path class="st1" d="M15.5,44.5V26.9c0-0.8,0.6-1.6,1.4-1.7c2-0.5,1.7,1,6.8,9.3c4.9-8.2,2-8.8,17.7,7.1c0.6,0.6,0.7,1.5,0.2,2.2
	C40.8,44.9,41.9,44.5,15.5,44.5z"/>
<path class="st2" d="M41.4,41.6c-15.7-15.9-12.8-15.3-17.7-7.1v10.1c17.8,0,17.2,0.3,17.9-0.8C42,43,41.9,42.2,41.4,41.6z"/>
<path class="st3" d="M38.8,44c-13-13.2-13.1-12.7-12.5-14.1s0.9-1.1,13.8-1.1c1,0,1.8,0.8,1.8,1.8v12.3C41.9,44.3,39.9,45.1,38.8,44
	z"/>
<path class="st4" d="M41.9,32.3c-15.1,0-14.5,0.2-15.2-0.5c-2-1.9,2.2-4.5,5.4-14c0.2-0.7,0.9-1.2,1.7-1.2h6.3c1,0,1.8,0.8,1.8,1.8
	V32.3L41.9,32.3z"/>
<path class="st5" d="M23.6,2.2c-8.1,0-14.9,7.5-11.9,16.7C13.6,24.7,19,34,22.1,38.8c0.3,0.5,0.9,0.8,1.5,0.8s1.2-0.3,1.5-0.8
	c2.1-3.3,8.2-13.5,10.4-19.9l0,0C38.5,9.7,31.7,2.2,23.6,2.2z M23.6,21c-3.5,0-6.4-2.8-6.4-6.2s2.9-6.2,6.4-6.2s6.4,2.8,6.4,6.2
	S27.1,21,23.6,21z"/>
<path class="st6" d="M23.6,2.2v6.2c3.5,0,6.4,2.8,6.4,6.2s-2.9,6.2-6.4,6.2v18.6c0.6,0,1.2-0.3,1.5-0.8c2.1-3.3,8.2-13.5,10.4-19.9
	l0,0C38.5,9.7,31.7,2.2,23.6,2.2z"/>
</svg>
