<?xml version="1.0" encoding="utf-8"?>
<!-- Generator: Adobe Illustrator 25.2.0, SVG Export Plug-In . SVG Version: 6.00 Build 0)  -->
<svg version="1.1" id="Layer_1" xmlns="http://www.w3.org/2000/svg" xmlns:xlink="http://www.w3.org/1999/xlink" x="0px" y="0px"
	 viewBox="0 0 48 48" style="enable-background:new 0 0 48 48;" xml:space="preserve">
<style type="text/css">
	.st0{fill:#1DCED1;}
	.st1{fill:#0DB7BA;}
	.st2{fill:#D4F2FF;}
	.st3{fill:#DFF8FF;}
</style>
<circle class="st0" cx="24" cy="24" r="18.2"/>
<path class="st1" d="M42.2,24.1l-9.6-9.6l-13.3,4.8l-0.5,9.5l-6.3,4.7l8.6,8.6c0.9,0.1,1.8,0.2,2.8,0.2C34,42.2,42.2,34.1,42.2,24.1
	z"/>
<path class="st2" d="M33,15.2c0-0.6-0.6-1.1-1.2-1l-12.6,3c-0.4,0.1-0.8,0.5-0.8,1V28c-1.1-0.7-2.7-0.7-4.2,0c-2,1-2.9,3.2-2.1,4.8
	c0.8,1.6,3.1,2.1,5.1,1c1.5-0.8,2.4-2.2,2.4-3.5l0,0v-9.5l12-2.9V26c-1.1-0.7-2.7-0.7-4.2,0c-2,1-2.9,3.2-2.1,4.8s3.1,2.1,5.1,1
	c1.5-0.8,2.4-2.2,2.4-3.5l0,0L33,15.2L33,15.2z"/>
<path class="st3" d="M31.8,14.3l-7.9,1.9v3.6l7.8-1.9V26c-1.1-0.7-2.7-0.7-4.2,0c-2,1-2.9,3.2-2.1,4.8s3.1,2.1,5.1,1
	c1.5-0.8,2.4-2.2,2.4-3.5l0,0V15.2C33,14.6,32.4,14.1,31.8,14.3z"/>
</svg>
