<?xml version="1.0" encoding="utf-8"?>
<!-- Generator: Adobe Illustrator 25.2.0, SVG Export Plug-In . SVG Version: 6.00 Build 0)  -->
<svg version="1.1" id="Layer_1" xmlns="http://www.w3.org/2000/svg" xmlns:xlink="http://www.w3.org/1999/xlink" x="0px" y="0px"
	 viewBox="0 0 48 48" style="enable-background:new 0 0 48 48;" xml:space="preserve">
<style type="text/css">
	.st0{fill:#523852;}
	.st1{fill:#220B22;}
	.st2{fill:#FF8B00;}
	.st3{fill:#FFFFF5;}
	.st4{fill:#F4F3E1;}
	.st5{fill:#DDD7D5;}
	.st6{fill:#CCC6C4;}
</style>
<g>
	<g>
		<circle class="st0" cx="24" cy="24" r="18.2"/>
	</g>
	<g>
		<path class="st1" d="M41.1,17.7L32,12.2l0.5,3.2h-0.5v0.4h-0.7v14.6H15.4L14.9,35l11.5,7.1c9-1.2,15.9-8.8,15.9-18.1
			C42.2,21.8,41.9,19.7,41.1,17.7z"/>
	</g>
	<g>
		<g>
			<path class="st2" d="M29.8,30V15.8H16.2l-2,17.8c-0.1,0.8,0.5,1.6,1.3,1.7l14,1.6c0.8,0.1,1.6-0.5,1.7-1.3l0.6-5.5H29.8z"/>
		</g>
		<g>
			<path class="st3" d="M32.6,34.3c0,0.8-0.7,1.5-1.5,1.5H17c-0.8,0-1.5-0.7-1.5-1.5V13.4c0-0.8,0.7-1.5,1.5-1.5H31
				c0.8,0,1.5,0.7,1.5,1.5V34.3z"/>
		</g>
		<g>
			<path class="st4" d="M31,11.8H24v24H31c0.8,0,1.5-0.7,1.5-1.5V13.4C32.6,12.5,31.9,11.8,31,11.8z"/>
		</g>
		<g>
			<rect x="17.4" y="15.4" class="st5" width="13.3" height="2.1"/>
		</g>
		<g>
			<rect x="17.4" y="19.7" class="st5" width="13.3" height="2.1"/>
		</g>
		<g>
			<rect x="17.4" y="23.8" class="st5" width="13.3" height="2.1"/>
		</g>
		<g>
			<rect x="17.4" y="28.1" class="st5" width="13.3" height="2.1"/>
		</g>
		<g>
			<g>
				<path class="st5" d="M19.3,12.7c0,0.3-0.2,0.5-0.5,0.5l0,0c-0.3,0-0.5-0.2-0.5-0.5v-1.6c0-0.3,0.2-0.5,0.5-0.5l0,0
					c0.3,0,0.5,0.2,0.5,0.5V12.7z"/>
			</g>
			<g>
				<path class="st5" d="M21.4,12.7c0,0.3-0.2,0.5-0.5,0.5l0,0c-0.3,0-0.5-0.2-0.5-0.5V11c0-0.3,0.2-0.5,0.5-0.5l0,0
					c0.3,0,0.5,0.2,0.5,0.5V12.7z"/>
			</g>
			<g>
				<path class="st5" d="M23.5,12.7c0,0.3-0.2,0.5-0.5,0.5l0,0c-0.3,0-0.5-0.2-0.5-0.5v-1.6c0-0.3,0.2-0.5,0.5-0.5l0,0
					c0.3,0,0.5,0.2,0.5,0.5V12.7z"/>
			</g>
			<g>
				<path class="st5" d="M25.7,12.7c0,0.3-0.2,0.5-0.5,0.5l0,0c-0.3,0-0.5-0.2-0.5-0.5v-1.6c0-0.3,0.2-0.5,0.5-0.5l0,0
					c0.3,0,0.5,0.2,0.5,0.5V12.7z"/>
			</g>
			<g>
				<path class="st5" d="M27.8,12.7c0,0.3-0.2,0.5-0.5,0.5l0,0c-0.3,0-0.5-0.2-0.5-0.5v-1.6c0-0.3,0.2-0.5,0.5-0.5l0,0
					c0.3,0,0.5,0.2,0.5,0.5V12.7z"/>
			</g>
			<g>
				<path class="st5" d="M29.9,12.7c0,0.3-0.2,0.5-0.5,0.5l0,0c-0.3,0-0.5-0.2-0.5-0.5v-1.6c0-0.3,0.2-0.5,0.5-0.5l0,0
					c0.3,0,0.5,0.2,0.5,0.5V12.7z"/>
			</g>
		</g>
		<g>
			<rect x="24" y="15.4" class="st6" width="6.7" height="2.1"/>
		</g>
		<g>
			<rect x="24" y="19.7" class="st6" width="6.7" height="2.1"/>
		</g>
		<g>
			<rect x="24" y="23.8" class="st6" width="6.7" height="2.1"/>
		</g>
		<g>
			<rect x="24" y="28.1" class="st6" width="6.7" height="2.1"/>
		</g>
	</g>
</g>
</svg>
